<svg xmlns="http://www.w3.org/2000/svg" width="28" height="24">
    <path fill="#FFF" fill-rule="evenodd" d="M24.693 22.771c-.189.248-.482.393-.793.393H3.804c-.31 0-.603-.145-.792-.393C1.311 20.548.335 17.565.335 14.586.335 7.038 6.399.897 13.852.897c7.454 0 13.517 6.129 13.517 13.664 0 2.995-.975 5.988-2.676 8.21zM13.852 2.914c-6.349 0-11.514 5.236-11.514 11.672 0 2.37.715 4.731 1.975 6.561h19.08c1.259-1.83 1.974-4.201 1.974-6.586 0-6.422-5.166-11.647-11.515-11.647zm7.937 11.859c-.553 0-1.001-.451-1.001-1.008 0-3.882-3.111-7.04-6.936-7.04-3.824 0-6.935 3.171-6.935 7.068 0 .557-.449 1.008-1.001 1.008-.553 0-1.002-.451-1.002-1.008 0-5.01 4.01-9.085 8.938-9.085 4.928 0 8.939 4.063 8.939 9.057 0 .557-.448 1.008-1.002 1.008zm-4.086-4.119s-.981 5.702-2.028 6.94c-1.047 1.239-2.892 1.387-4.121.333-1.23-1.055-1.378-2.913-.331-4.151s6.48-3.122 6.48-3.122z"/>
</svg>
