<svg xmlns="http://www.w3.org/2000/svg" width="26" height="26">
    <path fill="#FFF" fill-rule="evenodd" d="M24.759 18.472c-.116.239-.321.423-.572.511-.252.089-.526.073-.766-.043l-.572-.276c-.498.83-1.105 1.595-1.798 2.265l.393.493c.346.433.275 1.065-.158 1.411-1.463 1.172-3.2 2.011-5.02 2.426-.548.127-1.077-.214-1.2-.754l-.14-.614c-.971.134-1.919.135-2.89.003l-.138.614c-.059.259-.219.485-.443.627-.161.102-.347.155-.535.155-.073 0-.148-.008-.221-.025-1.822-.412-3.56-1.248-5.026-2.418-.208-.165-.342-.408-.371-.672-.031-.264.046-.529.211-.738l.393-.493c-.695-.668-1.304-1.432-1.803-2.261l-.571.276c-.497.243-1.097.035-1.338-.464-.825-1.704-1.246-3.534-1.25-5.441-.001-.266.105-.522.292-.711.187-.188.442-.294.708-.295l.623-.001c.088-.969.303-1.913.644-2.826l-.57-.274c-.24-.115-.424-.321-.512-.573-.088-.251-.073-.526.042-.766.809-1.686 2.005-3.197 3.462-4.367.434-.346 1.063-.277 1.409.154l.394.491c.805-.532 1.685-.958 2.603-1.263l-.142-.616c-.059-.259-.013-.533.128-.758.14-.226.366-.386.624-.446 1.81-.418 3.756-.423 5.567-.017.54.12.88.657.759 1.198l-.137.617c.918.298 1.799.721 2.61 1.25l.392-.495c.165-.209.406-.343.67-.374.262-.035.529.045.737.211 1.465 1.164 2.672 2.666 3.489 4.345.117.239.134.516.047.768-.086.251-.269.458-.508.575l-.569.277c.348.917.57 1.864.662 2.833l.614-.008c.251-.011.526.102.716.289.191.19.299.446.299.715 0 1.948-.416 3.778-1.238 5.485zm-1.331-4.461c-.266-.032-.526-.101-.716-.288-.19-.188-.298-.445-.299-.712-.003-1.353-.309-2.664-.908-3.895-.242-.499-.036-1.099.462-1.342l.485-.237c-.472-.77-1.043-1.482-1.695-2.11l-.333.421c-.343.434-.973.507-1.407.163-1.062-.843-2.268-1.421-3.585-1.717-.54-.121-.879-.658-.758-1.198l.116-.523c-.894-.111-1.813-.108-2.704.009l.122.523c.06.259.014.532-.127.758-.141.225-.366.386-.625.446-1.302.3-2.538.899-3.576 1.733-.431.348-1.061.278-1.408-.154l-.335-.416c-.647.631-1.215 1.347-1.682 2.12l.487.235c.499.239.709.838.469 1.338-.587 1.228-.884 2.527-.884 3.863 0 .554-.447 1.024-.999 1.025h-.531c.086.908.289 1.791.605 2.642l.486-.236c.24-.118.515-.133.766-.046.251.088.458.271.574.511.583 1.207 1.442 2.282 2.481 3.111.207.166.341.408.371.673.03.263-.046.529-.212.738l-.332.418c.758.494 1.581.89 2.438 1.174l.118-.523c.058-.26.218-.485.442-.627.225-.142.494-.19.756-.131 1.343.305 2.635.304 3.977-.004.257-.059.531-.012.756.129.225.141.385.366.443.626l.12.524c.856-.285 1.678-.684 2.436-1.178l-.333-.419c-.346-.432-.275-1.065.156-1.41 1.038-.831 1.894-1.909 2.476-3.117.24-.499.837-.71 1.338-.468l.488.235c.317-.86.518-1.753.601-2.671l-.52.007zm-9.837 5.285c-3.316 0-6.013-2.701-6.013-6.022 0-3.32 2.697-6.022 6.013-6.022 3.315 0 6.012 2.702 6.012 6.022 0 3.321-2.697 6.022-6.012 6.022zm0-10.037c-2.211 0-4.009 1.801-4.009 4.015 0 2.214 1.798 4.015 4.009 4.015 2.21 0 4.008-1.801 4.008-4.015 0-2.214-1.798-4.015-4.008-4.015z"/>
</svg>
