<svg xmlns="http://www.w3.org/2000/svg" width="24" height="30">
    <path fill="#1275B9" fill-rule="evenodd" d="M18.266 29.975H5.735c-2.631 0-4.771-2.224-4.771-4.958V4.944c0-2.734 2.14-4.958 4.771-4.958h12.531c2.631 0 4.772 2.224 4.772 4.958v20.073c0 2.734-2.141 4.958-4.772 4.958zm2.837-25.031c0-1.626-1.272-2.948-2.837-2.948H5.735c-1.564 0-2.836 1.322-2.836 2.948v20.073c0 1.626 1.272 2.948 2.836 2.948h12.531c1.565 0 2.837-1.322 2.837-2.948V4.944zm-8.134.487h-1.935c-.534 0-.968-.45-.968-1.005 0-.556.434-1.006.968-1.006h1.935c.534 0 .967.45.967 1.006 0 .555-.433 1.005-.967 1.005zm-.968 19.377c.533 0 .968.45.968 1.005 0 .555-.435 1.005-.968 1.005-.533 0-.967-.45-.967-1.005 0-.555.434-1.005.967-1.005z"/>
</svg>
